<svg width="180" height="180" viewBox="0 0 180 180" fill="none" xmlns="http://www.w3.org/2000/svg">
<path d="M101.25 168.75H95.625V174.375H101.25V168.75Z" fill="#6ACEE5"/>
<path d="M106.875 168.75H101.25V174.375H106.875V168.75Z" fill="#6ACEE5"/>
<path d="M112.5 168.75H106.875V174.375H112.5V168.75Z" fill="#6ACEE5"/>
<path d="M39.375 78.75H33.75V84.375H39.375V78.75Z" fill="black"/>
<path d="M146.25 78.75H140.625V84.375H146.25V78.75Z" fill="black"/>
<path d="M73.125 168.75H67.5V174.375H73.125V168.75Z" fill="#6ACEE5"/>
<path d="M78.75 168.75H73.125V174.375H78.75V168.75Z" fill="#6ACEE5"/>
<path d="M84.375 168.75H78.75V174.375H84.375V168.75Z" fill="#6ACEE5"/>
<path d="M90 168.75H84.375V174.375H90V168.75Z" fill="#6ACEE5"/>
<path d="M118.125 163.125H112.5V168.75H118.125V163.125Z" fill="#6ACEE5"/>
<path d="M39.375 84.375H33.75V90H39.375V84.375Z" fill="black"/>
<path d="M146.25 84.375H140.625V90H146.25V84.375Z" fill="black"/>
<path d="M67.5 163.125H61.875V168.75H67.5V163.125Z" fill="#6ACEE5"/>
<path d="M95.625 168.75H90V174.375H95.625V168.75Z" fill="#6ACEE5"/>
<path d="M101.25 90H95.625V95.625H101.25V90Z" fill="#6ACEE5"/>
<path d="M101.25 45H95.625V50.625H101.25V45Z" fill="#6ACEE5"/>
<path d="M101.25 135H95.625V140.625H101.25V135Z" fill="#6ACEE5"/>
<path d="M101.25 112.5H95.625V118.125H101.25V112.5Z" fill="#6ACEE5"/>
<path d="M101.25 67.5H95.625V73.125H101.25V67.5Z" fill="#6ACEE5"/>
<path d="M101.25 157.5H95.625V163.125H101.25V157.5Z" fill="#6ACEE5"/>
<path d="M101.25 101.25H95.625V106.875H101.25V101.25Z" fill="#6ACEE5"/>
<path d="M101.25 56.25H95.625V61.875H101.25V56.25Z" fill="#6ACEE5"/>
<path d="M101.25 146.25H95.625V151.875H101.25V146.25Z" fill="#6ACEE5"/>
<path d="M101.25 33.75H95.625V39.375H101.25V33.75Z" fill="#6ACEE5"/>
<path d="M101.25 123.75H95.625V129.375H101.25V123.75Z" fill="#6ACEE5"/>
<path d="M101.25 78.75H95.625V84.375H101.25V78.75Z" fill="#6ACEE5"/>
<path d="M106.875 90H101.25V95.625H106.875V90Z" fill="#6ACEE5"/>
<path d="M106.875 45H101.25V50.625H106.875V45Z" fill="#6ACEE5"/>
<path d="M106.875 135H101.25V140.625H106.875V135Z" fill="#6ACEE5"/>
<path d="M106.875 112.5H101.25V118.125H106.875V112.5Z" fill="#6ACEE5"/>
<path d="M106.875 67.5H101.25V73.125H106.875V67.5Z" fill="#6ACEE5"/>
<path d="M106.875 101.25H101.25V106.875H106.875V101.25Z" fill="#6ACEE5"/>
<path d="M106.875 56.25H101.25V61.875H106.875V56.25Z" fill="#6ACEE5"/>
<path d="M106.875 146.25H101.25V151.875H106.875V146.25Z" fill="#6ACEE5"/>
<path d="M106.875 33.75H101.25V39.375H106.875V33.75Z" fill="#6ACEE5"/>
<path d="M106.875 123.75H101.25V129.375H106.875V123.75Z" fill="#6ACEE5"/>
<path d="M106.875 78.75H101.25V84.375H106.875V78.75Z" fill="#6ACEE5"/>
<path d="M112.5 90H106.875V95.625H112.5V90Z" fill="#5DB7E5"/>
<path d="M112.5 45H106.875V50.625H112.5V45Z" fill="#5DB7E5"/>
<path d="M112.5 135H106.875V140.625H112.5V135Z" fill="#5DB7E5"/>
<path d="M112.5 112.5H106.875V118.125H112.5V112.5Z" fill="#5DB7E5"/>
<path d="M112.5 67.5H106.875V73.125H112.5V67.5Z" fill="#5DB7E5"/>
<path d="M112.5 157.5H106.875V163.125H112.5V157.5Z" fill="#6ACEE5"/>
<path d="M112.5 101.25H106.875V106.875H112.5V101.25Z" fill="#5DB7E5"/>
<path d="M112.5 56.25H106.875V61.875H112.5V56.25Z" fill="#5DB7E5"/>
<path d="M112.5 146.25H106.875V151.875H112.5V146.25Z" fill="#5DB7E5"/>
<path d="M112.5 33.75H106.875V39.375H112.5V33.75Z" fill="#5DB7E5"/>
<path d="M112.5 123.75H106.875V129.375H112.5V123.75Z" fill="#5DB7E5"/>
<path d="M112.5 78.75H106.875V84.375H112.5V78.75Z" fill="#5DB7E5"/>
<path d="M118.125 90H112.5V95.625H118.125V90Z" fill="#6ACEE5"/>
<path d="M118.125 45H112.5V50.625H118.125V45Z" fill="#6ACEE5"/>
<path d="M118.125 135H112.5V140.625H118.125V135Z" fill="#6ACEE5"/>
<path d="M118.125 112.5H112.5V118.125H118.125V112.5Z" fill="#6ACEE5"/>
<path d="M118.125 67.5H112.5V73.125H118.125V67.5Z" fill="#6ACEE5"/>
<path d="M118.125 157.5H112.5V163.125H118.125V157.5Z" fill="#6ACEE5"/>
<path d="M118.125 101.25H112.5V106.875H118.125V101.25Z" fill="#6ACEE5"/>
<path d="M118.125 56.25H112.5V61.875H118.125V56.25Z" fill="#6ACEE5"/>
<path d="M118.125 123.75H112.5V129.375H118.125V123.75Z" fill="#6ACEE5"/>
<path d="M118.125 78.75H112.5V84.375H118.125V78.75Z" fill="#6ACEE5"/>
<path d="M118.125 168.75H112.5V174.375H118.125V168.75Z" fill="#6ACEE5"/>
<path d="M123.75 90H118.125V95.625H123.75V90Z" fill="#5DB7E5"/>
<path d="M123.75 45H118.125V50.625H123.75V45Z" fill="#5DB7E5"/>
<path d="M123.75 135H118.125V140.625H123.75V135Z" fill="#5DB7E5"/>
<path d="M123.75 112.5H118.125V118.125H123.75V112.5Z" fill="#5DB7E5"/>
<path d="M123.75 67.5H118.125V73.125H123.75V67.5Z" fill="#5DB7E5"/>
<path d="M123.75 101.25H118.125V106.875H123.75V101.25Z" fill="#5DB7E5"/>
<path d="M123.75 56.25H118.125V61.875H123.75V56.25Z" fill="#5DB7E5"/>
<path d="M123.75 123.75H118.125V129.375H123.75V123.75Z" fill="#5DB7E5"/>
<path d="M123.75 78.75H118.125V84.375H123.75V78.75Z" fill="#5DB7E5"/>
<path d="M129.375 90H123.75V95.625H129.375V90Z" fill="#5DB7E5"/>
<path d="M129.375 112.5H123.75V118.125H129.375V112.5Z" fill="#5DB7E5"/>
<path d="M129.375 67.5H123.75V73.125H129.375V67.5Z" fill="#5DB7E5"/>
<path d="M129.375 101.25H123.75V106.875H129.375V101.25Z" fill="#5DB7E5"/>
<path d="M129.375 56.25H123.75V61.875H129.375V56.25Z" fill="#5DB7E5"/>
<path d="M129.375 123.75H123.75V129.375H129.375V123.75Z" fill="#5DB7E5"/>
<path d="M129.375 78.75H123.75V84.375H129.375V78.75Z" fill="#5DB7E5"/>
<path d="M45 90H39.375V95.625H45V90Z" fill="#2C8195"/>
<path d="M45 101.25H39.375V106.875H45V101.25Z" fill="#2C8195"/>
<path d="M140.625 90H135V95.625H140.625V90Z" fill="#2C8195"/>
<path d="M140.625 101.25H135V106.875H140.625V101.25Z" fill="#2C8195"/>
<path d="M56.25 90H50.625V95.625H56.25V90Z" fill="#6ACEE5"/>
<path d="M56.25 112.5H50.625V118.125H56.25V112.5Z" fill="#6ACEE5"/>
<path d="M56.25 67.5H50.625V73.125H56.25V67.5Z" fill="#6ACEE5"/>
<path d="M56.25 101.25H50.625V106.875H56.25V101.25Z" fill="#6ACEE5"/>
<path d="M56.25 56.25H50.625V61.875H56.25V56.25Z" fill="#6ACEE5"/>
<path d="M56.25 123.75H50.625V129.375H56.25V123.75Z" fill="#6ACEE5"/>
<path d="M56.25 78.75H50.625V84.375H56.25V78.75Z" fill="#6ACEE5"/>
<path d="M61.875 90H56.25V95.625H61.875V90Z" fill="#6ACEE5"/>
<path d="M61.875 45H56.25V50.625H61.875V45Z" fill="#6ACEE5"/>
<path d="M61.875 135H56.25V140.625H61.875V135Z" fill="#6ACEE5"/>
<path d="M61.875 112.5H56.25V118.125H61.875V112.5Z" fill="#6ACEE5"/>
<path d="M61.875 67.5H56.25V73.125H61.875V67.5Z" fill="#6ACEE5"/>
<path d="M61.875 101.25H56.25V106.875H61.875V101.25Z" fill="#6ACEE5"/>
<path d="M61.875 56.25H56.25V61.875H61.875V56.25Z" fill="#6ACEE5"/>
<path d="M61.875 123.75H56.25V129.375H61.875V123.75Z" fill="#6ACEE5"/>
<path d="M61.875 78.75H56.25V84.375H61.875V78.75Z" fill="#6ACEE5"/>
<path d="M67.5 90H61.875V95.625H67.5V90Z" fill="#6ACEE5"/>
<path d="M67.5 45H61.875V50.625H67.5V45Z" fill="#6ACEE5"/>
<path d="M67.5 135H61.875V140.625H67.5V135Z" fill="#6ACEE5"/>
<path d="M67.5 112.5H61.875V118.125H67.5V112.5Z" fill="#6ACEE5"/>
<path d="M67.5 67.5H61.875V73.125H67.5V67.5Z" fill="#6ACEE5"/>
<path d="M67.5 157.5H61.875V163.125H67.5V157.5Z" fill="#6ACEE5"/>
<path d="M67.5 101.25H61.875V106.875H67.5V101.25Z" fill="#6ACEE5"/>
<path d="M67.5 56.25H61.875V61.875H67.5V56.25Z" fill="#6ACEE5"/>
<path d="M67.5 123.75H61.875V129.375H67.5V123.75Z" fill="#6ACEE5"/>
<path d="M67.5 78.75H61.875V84.375H67.5V78.75Z" fill="#6ACEE5"/>
<path d="M67.5 168.75H61.875V174.375H67.5V168.75Z" fill="#6ACEE5"/>
<path d="M73.125 90H67.5V95.625H73.125V90Z" fill="#6ACEE5"/>
<path d="M73.125 45H67.5V50.625H73.125V45Z" fill="#6ACEE5"/>
<path d="M73.125 135H67.5V140.625H73.125V135Z" fill="#6ACEE5"/>
<path d="M73.125 112.5H67.5V118.125H73.125V112.5Z" fill="#6ACEE5"/>
<path d="M73.125 67.5H67.5V73.125H73.125V67.5Z" fill="#6ACEE5"/>
<path d="M73.125 157.5H67.5V163.125H73.125V157.5Z" fill="#6ACEE5"/>
<path d="M73.125 101.25H67.5V106.875H73.125V101.25Z" fill="#6ACEE5"/>
<path d="M73.125 56.25H67.5V61.875H73.125V56.25Z" fill="#6ACEE5"/>
<path d="M73.125 146.25H67.5V151.875H73.125V146.25Z" fill="#6ACEE5"/>
<path d="M73.125 33.75H67.5V39.375H73.125V33.75Z" fill="#6ACEE5"/>
<path d="M73.125 123.75H67.5V129.375H73.125V123.75Z" fill="#6ACEE5"/>
<path d="M73.125 78.75H67.5V84.375H73.125V78.75Z" fill="#6ACEE5"/>
<path d="M78.75 90H73.125V95.625H78.75V90Z" fill="#6ACEE5"/>
<path d="M78.75 45H73.125V50.625H78.75V45Z" fill="#6ACEE5"/>
<path d="M78.75 135H73.125V140.625H78.75V135Z" fill="#6ACEE5"/>
<path d="M78.75 112.5H73.125V118.125H78.75V112.5Z" fill="#6ACEE5"/>
<path d="M78.75 67.5H73.125V73.125H78.75V67.5Z" fill="#6ACEE5"/>
<path d="M78.75 101.25H73.125V106.875H78.75V101.25Z" fill="#6ACEE5"/>
<path d="M78.75 56.25H73.125V61.875H78.75V56.25Z" fill="#6ACEE5"/>
<path d="M78.75 146.25H73.125V151.875H78.75V146.25Z" fill="#6ACEE5"/>
<path d="M78.75 33.75H73.125V39.375H78.75V33.75Z" fill="#6ACEE5"/>
<path d="M78.75 123.75H73.125V129.375H78.75V123.75Z" fill="#6ACEE5"/>
<path d="M78.75 78.75H73.125V84.375H78.75V78.75Z" fill="#6ACEE5"/>
<path d="M84.375 90H78.75V95.625H84.375V90Z" fill="#6ACEE5"/>
<path d="M84.375 45H78.75V50.625H84.375V45Z" fill="#6ACEE5"/>
<path d="M84.375 135H78.75V140.625H84.375V135Z" fill="#6ACEE5"/>
<path d="M84.375 112.5H78.75V118.125H84.375V112.5Z" fill="#6ACEE5"/>
<path d="M84.375 67.5H78.75V73.125H84.375V67.5Z" fill="#6ACEE5"/>
<path d="M84.375 157.5H78.75V163.125H84.375V157.5Z" fill="#6ACEE5"/>
<path d="M84.375 101.25H78.75V106.875H84.375V101.25Z" fill="#6ACEE5"/>
<path d="M84.375 56.25H78.75V61.875H84.375V56.25Z" fill="#6ACEE5"/>
<path d="M84.375 146.25H78.75V151.875H84.375V146.25Z" fill="#6ACEE5"/>
<path d="M84.375 33.75H78.75V39.375H84.375V33.75Z" fill="#6ACEE5"/>
<path d="M84.375 123.75H78.75V129.375H84.375V123.75Z" fill="#6ACEE5"/>
<path d="M84.375 78.75H78.75V84.375H84.375V78.75Z" fill="#6ACEE5"/>
<path d="M90 90H84.375V95.625H90V90Z" fill="#6ACEE5"/>
<path d="M90 45H84.375V50.625H90V45Z" fill="#6ACEE5"/>
<path d="M90 135H84.375V140.625H90V135Z" fill="#6ACEE5"/>
<path d="M90 112.5H84.375V118.125H90V112.5Z" fill="#6ACEE5"/>
<path d="M90 67.5H84.375V73.125H90V67.5Z" fill="#6ACEE5"/>
<path d="M90 157.5H84.375V163.125H90V157.5Z" fill="#6ACEE5"/>
<path d="M90 101.25H84.375V106.875H90V101.25Z" fill="#6ACEE5"/>
<path d="M90 56.25H84.375V61.875H90V56.25Z" fill="#6ACEE5"/>
<path d="M90 146.25H84.375V151.875H90V146.25Z" fill="#6ACEE5"/>
<path d="M90 33.75H84.375V39.375H90V33.75Z" fill="#6ACEE5"/>
<path d="M90 123.75H84.375V129.375H90V123.75Z" fill="#6ACEE5"/>
<path d="M90 78.75H84.375V84.375H90V78.75Z" fill="#6ACEE5"/>
<path d="M101.25 95.625H95.625V101.25H101.25V95.625Z" fill="#6ACEE5"/>
<path d="M101.25 50.625H95.625V56.25H101.25V50.625Z" fill="#6ACEE5"/>
<path d="M101.25 140.625H95.625V146.25H101.25V140.625Z" fill="#6ACEE5"/>
<path d="M101.25 118.125H95.625V123.75H101.25V118.125Z" fill="#6ACEE5"/>
<path d="M101.25 73.125H95.625V78.75H101.25V73.125Z" fill="#6ACEE5"/>
<path d="M101.25 106.875H95.625V112.5H101.25V106.875Z" fill="#6ACEE5"/>
<path d="M101.25 61.875H95.625V67.5H101.25V61.875Z" fill="#6ACEE5"/>
<path d="M101.25 151.875H95.625V157.5H101.25V151.875Z" fill="#6ACEE5"/>
<path d="M101.25 39.375H95.625V45H101.25V39.375Z" fill="#6ACEE5"/>
<path d="M101.25 129.375H95.625V135H101.25V129.375Z" fill="#6ACEE5"/>
<path d="M101.25 84.375H95.625V90H101.25V84.375Z" fill="#6ACEE5"/>
<path d="M101.25 174.375H95.625V180H101.25V174.375Z" fill="#6ACEE5"/>
<path d="M106.875 95.625H101.25V101.25H106.875V95.625Z" fill="#5DB7E5"/>
<path d="M106.875 50.625H101.25V56.25H106.875V50.625Z" fill="#5DB7E5"/>
<path d="M106.875 140.625H101.25V146.25H106.875V140.625Z" fill="#5DB7E5"/>
<path d="M106.875 118.125H101.25V123.75H106.875V118.125Z" fill="#5DB7E5"/>
<path d="M106.875 73.125H101.25V78.75H106.875V73.125Z" fill="#5DB7E5"/>
<path d="M106.875 163.125H101.25V168.75H106.875V163.125Z" fill="#6ACEE5"/>
<path d="M106.875 106.875H101.25V112.5H106.875V106.875Z" fill="#5DB7E5"/>
<path d="M106.875 61.875H101.25V67.5H106.875V61.875Z" fill="#5DB7E5"/>
<path d="M106.875 151.875H101.25V157.5H106.875V151.875Z" fill="#5DB7E5"/>
<path d="M106.875 39.375H101.25V45H106.875V39.375Z" fill="#5DB7E5"/>
<path d="M106.875 129.375H101.25V135H106.875V129.375Z" fill="#5DB7E5"/>
<path d="M106.875 84.375H101.25V90H106.875V84.375Z" fill="#5DB7E5"/>
<path d="M106.875 174.375H101.25V180H106.875V174.375Z" fill="#6ACEE5"/>
<path d="M112.5 95.625H106.875V101.25H112.5V95.625Z" fill="#6ACEE5"/>
<path d="M112.5 50.625H106.875V56.25H112.5V50.625Z" fill="#6ACEE5"/>
<path d="M112.5 140.625H106.875V146.25H112.5V140.625Z" fill="#6ACEE5"/>
<path d="M112.5 118.125H106.875V123.75H112.5V118.125Z" fill="#6ACEE5"/>
<path d="M112.5 73.125H106.875V78.75H112.5V73.125Z" fill="#6ACEE5"/>
<path d="M112.5 163.125H106.875V168.75H112.5V163.125Z" fill="#6ACEE5"/>
<path d="M112.5 106.875H106.875V112.5H112.5V106.875Z" fill="#6ACEE5"/>
<path d="M112.5 61.875H106.875V67.5H112.5V61.875Z" fill="#6ACEE5"/>
<path d="M112.5 39.375H106.875V45H112.5V39.375Z" fill="#6ACEE5"/>
<path d="M112.5 129.375H106.875V135H112.5V129.375Z" fill="#6ACEE5"/>
<path d="M112.5 84.375H106.875V90H112.5V84.375Z" fill="#6ACEE5"/>
<path d="M112.5 174.375H106.875V180H112.5V174.375Z" fill="#6ACEE5"/>
<path d="M118.125 95.625H112.5V101.25H118.125V95.625Z" fill="#5DB7E5"/>
<path d="M118.125 50.625H112.5V56.25H118.125V50.625Z" fill="#5DB7E5"/>
<path d="M118.125 140.625H112.5V146.25H118.125V140.625Z" fill="#5DB7E5"/>
<path d="M118.125 118.125H112.5V123.75H118.125V118.125Z" fill="#5DB7E5"/>
<path d="M118.125 73.125H112.5V78.75H118.125V73.125Z" fill="#5DB7E5"/>
<path d="M118.125 106.875H112.5V112.5H118.125V106.875Z" fill="#5DB7E5"/>
<path d="M118.125 61.875H112.5V67.5H118.125V61.875Z" fill="#5DB7E5"/>
<path d="M118.125 151.875H112.5V157.5H118.125V151.875Z" fill="#6ACEE5"/>
<path d="M118.125 39.375H112.5V45H118.125V39.375Z" fill="#5DB7E5"/>
<path d="M118.125 129.375H112.5V135H118.125V129.375Z" fill="#5DB7E5"/>
<path d="M118.125 84.375H112.5V90H118.125V84.375Z" fill="#5DB7E5"/>
<path d="M118.125 174.375H112.5V180H118.125V174.375Z" fill="#6ACEE5"/>
<path d="M123.75 95.625H118.125V101.25H123.75V95.625Z" fill="#5DB7E5"/>
<path d="M123.75 50.625H118.125V56.25H123.75V50.625Z" fill="#5DB7E5"/>
<path d="M123.75 118.125H118.125V123.75H123.75V118.125Z" fill="#5DB7E5"/>
<path d="M123.75 73.125H118.125V78.75H123.75V73.125Z" fill="#5DB7E5"/>
<path d="M123.75 106.875H118.125V112.5H123.75V106.875Z" fill="#5DB7E5"/>
<path d="M123.75 61.875H118.125V67.5H123.75V61.875Z" fill="#5DB7E5"/>
<path d="M123.75 39.375H118.125V45H123.75V39.375Z" fill="#5DB7E5"/>
<path d="M123.75 129.375H118.125V135H123.75V129.375Z" fill="#5DB7E5"/>
<path d="M123.75 84.375H118.125V90H123.75V84.375Z" fill="#5DB7E5"/>
<path d="M129.375 95.625H123.75V101.25H129.375V95.625Z" fill="#5DB7E5"/>
<path d="M129.375 50.625H123.75V56.25H129.375V50.625Z" fill="#5DB7E5"/>
<path d="M129.375 118.125H123.75V123.75H129.375V118.125Z" fill="#5DB7E5"/>
<path d="M129.375 73.125H123.75V78.75H129.375V73.125Z" fill="#5DB7E5"/>
<path d="M129.375 106.875H123.75V112.5H129.375V106.875Z" fill="#5DB7E5"/>
<path d="M129.375 61.875H123.75V67.5H129.375V61.875Z" fill="#5DB7E5"/>
<path d="M129.375 84.375H123.75V90H129.375V84.375Z" fill="#5DB7E5"/>
<path d="M45 95.625H39.375V101.25H45V95.625Z" fill="#2C8195"/>
<path d="M45 106.875H39.375V112.5H45V106.875Z" fill="#2C8195"/>
<path d="M140.625 95.625H135V101.25H140.625V95.625Z" fill="#2C8195"/>
<path d="M140.625 106.875H135V112.5H140.625V106.875Z" fill="#2C8195"/>
<path d="M56.25 95.625H50.625V101.25H56.25V95.625Z" fill="#6ACEE5"/>
<path d="M56.25 50.625H50.625V56.25H56.25V50.625Z" fill="#6ACEE5"/>
<path d="M56.25 118.125H50.625V123.75H56.25V118.125Z" fill="#6ACEE5"/>
<path d="M56.25 73.125H50.625V78.75H56.25V73.125Z" fill="#6ACEE5"/>
<path d="M56.25 106.875H50.625V112.5H56.25V106.875Z" fill="#6ACEE5"/>
<path d="M56.25 61.875H50.625V67.5H56.25V61.875Z" fill="#6ACEE5"/>
<path d="M56.25 84.375H50.625V90H56.25V84.375Z" fill="#6ACEE5"/>
<path d="M61.875 95.625H56.25V101.25H61.875V95.625Z" fill="#6ACEE5"/>
<path d="M61.875 50.625H56.25V56.25H61.875V50.625Z" fill="#6ACEE5"/>
<path d="M61.875 118.125H56.25V123.75H61.875V118.125Z" fill="#6ACEE5"/>
<path d="M61.875 73.125H56.25V78.75H61.875V73.125Z" fill="#6ACEE5"/>
<path d="M61.875 106.875H56.25V112.5H61.875V106.875Z" fill="#6ACEE5"/>
<path d="M61.875 61.875H56.25V67.5H61.875V61.875Z" fill="#6ACEE5"/>
<path d="M61.875 39.375H56.25V45H61.875V39.375Z" fill="#6ACEE5"/>
<path d="M61.875 129.375H56.25V135H61.875V129.375Z" fill="#6ACEE5"/>
<path d="M61.875 84.375H56.25V90H61.875V84.375Z" fill="#6ACEE5"/>
<path d="M67.5 95.625H61.875V101.25H67.5V95.625Z" fill="#6ACEE5"/>
<path d="M67.5 50.625H61.875V56.25H67.5V50.625Z" fill="#6ACEE5"/>
<path d="M67.5 140.625H61.875V146.25H67.5V140.625Z" fill="#6ACEE5"/>
<path d="M67.5 118.125H61.875V123.75H67.5V118.125Z" fill="#6ACEE5"/>
<path d="M67.5 73.125H61.875V78.75H67.5V73.125Z" fill="#6ACEE5"/>
<path d="M67.5 106.875H61.875V112.5H67.5V106.875Z" fill="#6ACEE5"/>
<path d="M67.5 61.875H61.875V67.5H67.5V61.875Z" fill="#6ACEE5"/>
<path d="M67.5 151.875H61.875V157.5H67.5V151.875Z" fill="#6ACEE5"/>
<path d="M67.5 39.375H61.875V45H67.5V39.375Z" fill="#6ACEE5"/>
<path d="M67.5 129.375H61.875V135H67.5V129.375Z" fill="#6ACEE5"/>
<path d="M67.5 84.375H61.875V90H67.5V84.375Z" fill="#6ACEE5"/>
<path d="M67.5 174.375H61.875V180H67.5V174.375Z" fill="#6ACEE5"/>
<path d="M73.125 95.625H67.5V101.25H73.125V95.625Z" fill="#6ACEE5"/>
<path d="M73.125 50.625H67.5V56.25H73.125V50.625Z" fill="#6ACEE5"/>
<path d="M73.125 140.625H67.5V146.25H73.125V140.625Z" fill="#6ACEE5"/>
<path d="M73.125 118.125H67.5V123.75H73.125V118.125Z" fill="#6ACEE5"/>
<path d="M73.125 73.125H67.5V78.75H73.125V73.125Z" fill="#6ACEE5"/>
<path d="M73.125 163.125H67.5V168.75H73.125V163.125Z" fill="#6ACEE5"/>
<path d="M73.125 106.875H67.5V112.5H73.125V106.875Z" fill="#6ACEE5"/>
<path d="M73.125 61.875H67.5V67.5H73.125V61.875Z" fill="#6ACEE5"/>
<path d="M73.125 39.375H67.5V45H73.125V39.375Z" fill="#6ACEE5"/>
<path d="M73.125 129.375H67.5V135H73.125V129.375Z" fill="#6ACEE5"/>
<path d="M73.125 84.375H67.5V90H73.125V84.375Z" fill="#6ACEE5"/>
<path d="M73.125 174.375H67.5V180H73.125V174.375Z" fill="#6ACEE5"/>
<path d="M78.75 95.625H73.125V101.25H78.75V95.625Z" fill="#6ACEE5"/>
<path d="M78.75 50.625H73.125V56.25H78.75V50.625Z" fill="#6ACEE5"/>
<path d="M78.75 140.625H73.125V146.25H78.75V140.625Z" fill="#6ACEE5"/>
<path d="M78.75 118.125H73.125V123.75H78.75V118.125Z" fill="#6ACEE5"/>
<path d="M78.75 73.125H73.125V78.75H78.75V73.125Z" fill="#6ACEE5"/>
<path d="M78.75 163.125H73.125V168.75H78.75V163.125Z" fill="#6ACEE5"/>
<path d="M78.75 106.875H73.125V112.5H78.75V106.875Z" fill="#6ACEE5"/>
<path d="M78.75 61.875H73.125V67.5H78.75V61.875Z" fill="#6ACEE5"/>
<path d="M78.75 151.875H73.125V157.5H78.75V151.875Z" fill="#6ACEE5"/>
<path d="M78.75 39.375H73.125V45H78.75V39.375Z" fill="#6ACEE5"/>
<path d="M78.75 129.375H73.125V135H78.75V129.375Z" fill="#6ACEE5"/>
<path d="M78.75 84.375H73.125V90H78.75V84.375Z" fill="#6ACEE5"/>
<path d="M78.75 174.375H73.125V180H78.75V174.375Z" fill="#6ACEE5"/>
<path d="M84.375 95.625H78.75V101.25H84.375V95.625Z" fill="#6ACEE5"/>
<path d="M84.375 50.625H78.75V56.25H84.375V50.625Z" fill="#6ACEE5"/>
<path d="M84.375 140.625H78.75V146.25H84.375V140.625Z" fill="#6ACEE5"/>
<path d="M84.375 118.125H78.75V123.75H84.375V118.125Z" fill="#6ACEE5"/>
<path d="M84.375 73.125H78.75V78.75H84.375V73.125Z" fill="#6ACEE5"/>
<path d="M84.375 106.875H78.75V112.5H84.375V106.875Z" fill="#6ACEE5"/>
<path d="M84.375 61.875H78.75V67.5H84.375V61.875Z" fill="#6ACEE5"/>
<path d="M84.375 151.875H78.75V157.5H84.375V151.875Z" fill="#6ACEE5"/>
<path d="M84.375 39.375H78.75V45H84.375V39.375Z" fill="#6ACEE5"/>
<path d="M84.375 129.375H78.75V135H84.375V129.375Z" fill="#6ACEE5"/>
<path d="M84.375 84.375H78.75V90H84.375V84.375Z" fill="#6ACEE5"/>
<path d="M84.375 174.375H78.75V180H84.375V174.375Z" fill="#6ACEE5"/>
<path d="M90 95.625H84.375V101.25H90V95.625Z" fill="#6ACEE5"/>
<path d="M90 50.625H84.375V56.25H90V50.625Z" fill="#6ACEE5"/>
<path d="M90 140.625H84.375V146.25H90V140.625Z" fill="#6ACEE5"/>
<path d="M90 118.125H84.375V123.75H90V118.125Z" fill="#6ACEE5"/>
<path d="M90 73.125H84.375V78.75H90V73.125Z" fill="#6ACEE5"/>
<path d="M90 106.875H84.375V112.5H90V106.875Z" fill="#6ACEE5"/>
<path d="M90 61.875H84.375V67.5H90V61.875Z" fill="#6ACEE5"/>
<path d="M90 151.875H84.375V157.5H90V151.875Z" fill="#6ACEE5"/>
<path d="M90 39.375H84.375V45H90V39.375Z" fill="#6ACEE5"/>
<path d="M90 129.375H84.375V135H90V129.375Z" fill="#6ACEE5"/>
<path d="M90 84.375H84.375V90H90V84.375Z" fill="#6ACEE5"/>
<path d="M90 174.375H84.375V180H90V174.375Z" fill="#6ACEE5"/>
<path d="M95.625 90H90V95.625H95.625V90Z" fill="#6ACEE5"/>
<path d="M95.625 45H90V50.625H95.625V45Z" fill="#6ACEE5"/>
<path d="M95.625 135H90V140.625H95.625V135Z" fill="#6ACEE5"/>
<path d="M95.625 112.5H90V118.125H95.625V112.5Z" fill="#6ACEE5"/>
<path d="M95.625 67.5H90V73.125H95.625V67.5Z" fill="#6ACEE5"/>
<path d="M95.625 157.5H90V163.125H95.625V157.5Z" fill="#6ACEE5"/>
<path d="M95.625 101.25H90V106.875H95.625V101.25Z" fill="#6ACEE5"/>
<path d="M95.625 56.25H90V61.875H95.625V56.25Z" fill="#6ACEE5"/>
<path d="M95.625 146.25H90V151.875H95.625V146.25Z" fill="#6ACEE5"/>
<path d="M95.625 33.75H90V39.375H95.625V33.75Z" fill="#6ACEE5"/>
<path d="M95.625 123.75H90V129.375H95.625V123.75Z" fill="#6ACEE5"/>
<path d="M95.625 78.75H90V84.375H95.625V78.75Z" fill="#6ACEE5"/>
<path d="M95.625 95.625H90V101.25H95.625V95.625Z" fill="#6ACEE5"/>
<path d="M95.625 50.625H90V56.25H95.625V50.625Z" fill="#6ACEE5"/>
<path d="M95.625 140.625H90V146.25H95.625V140.625Z" fill="#6ACEE5"/>
<path d="M95.625 118.125H90V123.75H95.625V118.125Z" fill="#6ACEE5"/>
<path d="M95.625 73.125H90V78.75H95.625V73.125Z" fill="#6ACEE5"/>
<path d="M95.625 106.875H90V112.5H95.625V106.875Z" fill="#6ACEE5"/>
<path d="M95.625 61.875H90V67.5H95.625V61.875Z" fill="#6ACEE5"/>
<path d="M95.625 151.875H90V157.5H95.625V151.875Z" fill="#6ACEE5"/>
<path d="M95.625 39.375H90V45H95.625V39.375Z" fill="#6ACEE5"/>
<path d="M95.625 129.375H90V135H95.625V129.375Z" fill="#6ACEE5"/>
<path d="M95.625 84.375H90V90H95.625V84.375Z" fill="#6ACEE5"/>
<path d="M95.625 174.375H90V180H95.625V174.375Z" fill="#6ACEE5"/>
<path d="M33.75 168.75H28.125V174.375H33.75V168.75Z" fill="#CACACA"/>
<path d="M39.375 157.5H33.75V163.125H39.375V157.5Z" fill="#EBEBEB"/>
<path d="M129.375 168.75H123.75V174.375H129.375V168.75Z" fill="black"/>
<path d="M135 168.75H129.375V174.375H135V168.75Z" fill="black"/>
<path d="M50.625 168.75H45V174.375H50.625V168.75Z" fill="black"/>
<path d="M146.25 157.5H140.625V163.125H146.25V157.5Z" fill="#EBEBEB"/>
<path d="M56.25 168.75H50.625V174.375H56.25V168.75Z" fill="black"/>
<path d="M151.875 168.75H146.25V174.375H151.875V168.75Z" fill="#CACACA"/>
<path d="M129.375 163.125H123.75V168.75H129.375V163.125Z" fill="black"/>
<path d="M129.375 174.375H123.75V180H129.375V174.375Z" fill="black"/>
<path d="M45 163.125H39.375V168.75H45V163.125Z" fill="#CACACA"/>
<path d="M45 174.375H39.375V180H45V174.375Z" fill="black"/>
<path d="M135 174.375H129.375V180H135V174.375Z" fill="black"/>
<path d="M140.625 163.125H135V168.75H140.625V163.125Z" fill="#CACACA"/>
<path d="M50.625 174.375H45V180H50.625V174.375Z" fill="black"/>
<path d="M140.625 174.375H135V180H140.625V174.375Z" fill="black"/>
<path d="M56.25 163.125H50.625V168.75H56.25V163.125Z" fill="black"/>
<path d="M56.25 174.375H50.625V180H56.25V174.375Z" fill="black"/>
<path d="M101.25 168.75H95.625V174.375H101.25V168.75Z" fill="black" fill-opacity="0.2"/>
<path d="M106.875 157.5H101.25V163.125H106.875V157.5Z" fill="black"/>
<path d="M112.5 157.5H106.875V163.125H112.5V157.5Z" fill="black" fill-opacity="0.2"/>
<path d="M118.125 146.25H112.5V151.875H118.125V146.25Z" fill="black"/>
<path d="M118.125 33.75H112.5V39.375H118.125V33.75Z" fill="black"/>
<path d="M123.75 157.5H118.125V163.125H123.75V157.5Z" fill="black"/>
<path d="M123.75 146.25H118.125V151.875H123.75V146.25Z" fill="black"/>
<path d="M123.75 33.75H118.125V39.375H123.75V33.75Z" fill="black"/>
<path d="M123.75 168.75H118.125V174.375H123.75V168.75Z" fill="black"/>
<path d="M39.375 90H33.75V95.625H39.375V90Z" fill="black"/>
<path d="M129.375 45H123.75V50.625H129.375V45Z" fill="black"/>
<path d="M129.375 135H123.75V140.625H129.375V135Z" fill="black"/>
<path d="M129.375 157.5H123.75V163.125H129.375V157.5Z" fill="black"/>
<path d="M39.375 101.25H33.75V106.875H39.375V101.25Z" fill="black"/>
<path d="M135 90H129.375V95.625H135V90Z" fill="black"/>
<path d="M45 112.5H39.375V118.125H45V112.5Z" fill="black"/>
<path d="M135 112.5H129.375V118.125H135V112.5Z" fill="black"/>
<path d="M135 67.5H129.375V73.125H135V67.5Z" fill="black"/>
<path d="M135 101.25H129.375V106.875H135V101.25Z" fill="black"/>
<path d="M135 56.25H129.375V61.875H135V56.25Z" fill="black"/>
<path d="M135 123.75H129.375V129.375H135V123.75Z" fill="black"/>
<path d="M45 168.75H39.375V174.375H45V168.75Z" fill="black"/>
<path d="M135 78.75H129.375V84.375H135V78.75Z" fill="black"/>
<path d="M50.625 90H45V95.625H50.625V90Z" fill="black"/>
<path d="M50.625 112.5H45V118.125H50.625V112.5Z" fill="black"/>
<path d="M140.625 112.5H135V118.125H140.625V112.5Z" fill="black"/>
<path d="M50.625 67.5H45V73.125H50.625V67.5Z" fill="black"/>
<path d="M50.625 101.25H45V106.875H50.625V101.25Z" fill="black"/>
<path d="M50.625 56.25H45V61.875H50.625V56.25Z" fill="black"/>
<path d="M50.625 123.75H45V129.375H50.625V123.75Z" fill="black"/>
<path d="M50.625 78.75H45V84.375H50.625V78.75Z" fill="black"/>
<path d="M140.625 168.75H135V174.375H140.625V168.75Z" fill="black"/>
<path d="M146.25 90H140.625V95.625H146.25V90Z" fill="black"/>
<path d="M56.25 45H50.625V50.625H56.25V45Z" fill="black"/>
<path d="M56.25 135H50.625V140.625H56.25V135Z" fill="black"/>
<path d="M56.25 157.5H50.625V163.125H56.25V157.5Z" fill="black"/>
<path d="M146.25 101.25H140.625V106.875H146.25V101.25Z" fill="black"/>
<path d="M61.875 157.5H56.25V163.125H61.875V157.5Z" fill="black"/>
<path d="M61.875 146.25H56.25V151.875H61.875V146.25Z" fill="black"/>
<path d="M61.875 33.75H56.25V39.375H61.875V33.75Z" fill="black"/>
<path d="M61.875 168.75H56.25V174.375H61.875V168.75Z" fill="black"/>
<path d="M67.5 146.25H61.875V151.875H67.5V146.25Z" fill="black"/>
<path d="M67.5 33.75H61.875V39.375H67.5V33.75Z" fill="black"/>
<path d="M73.125 157.5H67.5V163.125H73.125V157.5Z" fill="black" fill-opacity="0.2"/>
<path d="M78.75 157.5H73.125V163.125H78.75V157.5Z" fill="black"/>
<path d="M84.375 168.75H78.75V174.375H84.375V168.75Z" fill="black" fill-opacity="0.2"/>
<path d="M90 168.75H84.375V174.375H90V168.75Z" fill="black" fill-opacity="0.2"/>
<path d="M101.25 28.125H95.625V33.75H101.25V28.125Z" fill="black"/>
<path d="M101.25 163.125H95.625V168.75H101.25V163.125Z" fill="black"/>
<path d="M106.875 28.125H101.25V33.75H106.875V28.125Z" fill="black"/>
<path d="M106.875 163.125H101.25V168.75H106.875V163.125Z" fill="black" fill-opacity="0.2"/>
<path d="M112.5 28.125H106.875V33.75H112.5V28.125Z" fill="black"/>
<path d="M112.5 151.875H106.875V157.5H112.5V151.875Z" fill="black"/>
<path d="M118.125 151.875H112.5V157.5H118.125V151.875Z" fill="black" fill-opacity="0.2"/>
<path d="M123.75 140.625H118.125V146.25H123.75V140.625Z" fill="black"/>
<path d="M123.75 163.125H118.125V168.75H123.75V163.125Z" fill="black"/>
<path d="M123.75 151.875H118.125V157.5H123.75V151.875Z" fill="black"/>
<path d="M123.75 174.375H118.125V180H123.75V174.375Z" fill="black"/>
<path d="M39.375 95.625H33.75V101.25H39.375V95.625Z" fill="black"/>
<path d="M39.375 106.875H33.75V112.5H39.375V106.875Z" fill="black"/>
<path d="M129.375 39.375H123.75V45H129.375V39.375Z" fill="black"/>
<path d="M129.375 129.375H123.75V135H129.375V129.375Z" fill="black"/>
<path d="M39.375 174.375H33.75V180H39.375V174.375Z" fill="black"/>
<path d="M135 95.625H129.375V101.25H135V95.625Z" fill="black"/>
<path d="M135 50.625H129.375V56.25H135V50.625Z" fill="black"/>
<path d="M135 118.125H129.375V123.75H135V118.125Z" fill="black"/>
<path d="M135 73.125H129.375V78.75H135V73.125Z" fill="black"/>
<path d="M135 163.125H129.375V168.75H135V163.125Z" fill="black"/>
<path d="M135 106.875H129.375V112.5H135V106.875Z" fill="black"/>
<path d="M135 61.875H129.375V67.5H135V61.875Z" fill="black"/>
<path d="M45 84.375H39.375V90H45V84.375Z" fill="black"/>
<path d="M135 84.375H129.375V90H135V84.375Z" fill="black"/>
<path d="M50.625 95.625H45V101.25H50.625V95.625Z" fill="black"/>
<path d="M50.625 50.625H45V56.25H50.625V50.625Z" fill="black"/>
<path d="M50.625 118.125H45V123.75H50.625V118.125Z" fill="black"/>
<path d="M50.625 73.125H45V78.75H50.625V73.125Z" fill="black"/>
<path d="M50.625 163.125H45V168.75H50.625V163.125Z" fill="black"/>
<path d="M50.625 106.875H45V112.5H50.625V106.875Z" fill="black"/>
<path d="M50.625 61.875H45V67.5H50.625V61.875Z" fill="black"/>
<path d="M50.625 84.375H45V90H50.625V84.375Z" fill="black"/>
<path d="M140.625 84.375H135V90H140.625V84.375Z" fill="black"/>
<path d="M146.25 95.625H140.625V101.25H146.25V95.625Z" fill="black"/>
<path d="M146.25 106.875H140.625V112.5H146.25V106.875Z" fill="black"/>
<path d="M56.25 39.375H50.625V45H56.25V39.375Z" fill="black"/>
<path d="M56.25 129.375H50.625V135H56.25V129.375Z" fill="black"/>
<path d="M146.25 174.375H140.625V180H146.25V174.375Z" fill="black"/>
<path d="M61.875 140.625H56.25V146.25H61.875V140.625Z" fill="black"/>
<path d="M61.875 163.125H56.25V168.75H61.875V163.125Z" fill="black"/>
<path d="M61.875 151.875H56.25V157.5H61.875V151.875Z" fill="black"/>
<path d="M61.875 174.375H56.25V180H61.875V174.375Z" fill="black"/>
<path d="M67.5 151.875H61.875V157.5H67.5V151.875Z" fill="black" fill-opacity="0.2"/>
<path d="M73.125 28.125H67.5V33.75H73.125V28.125Z" fill="black"/>
<path d="M73.125 151.875H67.5V157.5H73.125V151.875Z" fill="black"/>
<path d="M78.75 28.125H73.125V33.75H78.75V28.125Z" fill="black"/>
<path d="M78.75 163.125H73.125V168.75H78.75V163.125Z" fill="black" fill-opacity="0.2"/>
<path d="M84.375 28.125H78.75V33.75H84.375V28.125Z" fill="black"/>
<path d="M84.375 163.125H78.75V168.75H84.375V163.125Z" fill="black"/>
<path d="M90 28.125H84.375V33.75H90V28.125Z" fill="black"/>
<path d="M90 163.125H84.375V168.75H90V163.125Z" fill="black"/>
<path d="M95.625 168.75H90V174.375H95.625V168.75Z" fill="black" fill-opacity="0.2"/>
<path d="M95.625 28.125H90V33.75H95.625V28.125Z" fill="black"/>
<path d="M95.625 163.125H90V168.75H95.625V163.125Z" fill="black"/>
<path d="M101.25 135H95.625V140.625H101.25V135Z" fill="black"/>
<path d="M101.25 146.25H95.625V151.875H101.25V146.25Z" fill="black"/>
<path d="M106.875 135H101.25V140.625H106.875V135Z" fill="black"/>
<path d="M78.75 135H73.125V140.625H78.75V135Z" fill="black"/>
<path d="M84.375 135H78.75V140.625H84.375V135Z" fill="black"/>
<path d="M84.375 146.25H78.75V151.875H84.375V146.25Z" fill="black"/>
<path d="M90 135H84.375V140.625H90V135Z" fill="black"/>
<path d="M90 146.25H84.375V151.875H90V146.25Z" fill="black"/>
<path d="M101.25 140.625H95.625V146.25H101.25V140.625Z" fill="white"/>
<path d="M106.875 140.625H101.25V146.25H106.875V140.625Z" fill="black"/>
<path d="M78.75 140.625H73.125V146.25H78.75V140.625Z" fill="black"/>
<path d="M84.375 140.625H78.75V146.25H84.375V140.625Z" fill="white"/>
<path d="M90 140.625H84.375V146.25H90V140.625Z" fill="white"/>
<path d="M95.625 135H90V140.625H95.625V135Z" fill="black"/>
<path d="M95.625 146.25H90V151.875H95.625V146.25Z" fill="black"/>
<path d="M95.625 140.625H90V146.25H95.625V140.625Z" fill="white"/>
<path d="M90 123.75H84.375V129.375H90V123.75Z" fill="black"/>
<path d="M101.25 118.125H95.625V123.75H101.25V118.125Z" fill="black"/>
<path d="M84.375 118.125H78.75V123.75H84.375V118.125Z" fill="black"/>
<path d="M95.625 123.75H90V129.375H95.625V123.75Z" fill="black"/>
<path d="M106.875 90H101.25V95.625H106.875V90Z" fill="black"/>
<path d="M112.5 90H106.875V95.625H112.5V90Z" fill="black"/>
<path d="M118.125 90H112.5V95.625H118.125V90Z" fill="black"/>
<path d="M118.125 78.75H112.5V84.375H118.125V78.75Z" fill="black"/>
<path d="M67.5 90H61.875V95.625H67.5V90Z" fill="black"/>
<path d="M67.5 78.75H61.875V84.375H67.5V78.75Z" fill="black"/>
<path d="M73.125 90H67.5V95.625H73.125V90Z" fill="black"/>
<path d="M78.75 90H73.125V95.625H78.75V90Z" fill="black"/>
<path d="M101.25 84.375H95.625V90H101.25V84.375Z" fill="black"/>
<path d="M106.875 95.625H101.25V101.25H106.875V95.625Z" fill="white"/>
<path d="M106.875 73.125H101.25V78.75H106.875V73.125Z" fill="black"/>
<path d="M112.5 95.625H106.875V101.25H112.5V95.625Z" fill="black"/>
<path d="M112.5 73.125H106.875V78.75H112.5V73.125Z" fill="black"/>
<path d="M118.125 95.625H112.5V101.25H118.125V95.625Z" fill="white"/>
<path d="M67.5 95.625H61.875V101.25H67.5V95.625Z" fill="white"/>
<path d="M73.125 95.625H67.5V101.25H73.125V95.625Z" fill="black"/>
<path d="M73.125 73.125H67.5V78.75H73.125V73.125Z" fill="black"/>
<path d="M78.75 95.625H73.125V101.25H78.75V95.625Z" fill="white"/>
<path d="M78.75 73.125H73.125V78.75H78.75V73.125Z" fill="black"/>
<path d="M84.375 84.375H78.75V90H84.375V84.375Z" fill="black"/>
<path d="M101.25 45H95.625V50.625H101.25V45Z" fill="#35315A"/>
<path d="M101.25 22.5H95.625V28.125H101.25V22.5Z" fill="black"/>
<path d="M101.25 67.5H95.625V73.125H101.25V67.5Z" fill="black"/>
<path d="M101.25 56.25H95.625V61.875H101.25V56.25Z" fill="black"/>
<path d="M101.25 33.75H95.625V39.375H101.25V33.75Z" fill="black"/>
<path d="M106.875 45H101.25V50.625H106.875V45Z" fill="black"/>
<path d="M106.875 22.5H101.25V28.125H106.875V22.5Z" fill="black"/>
<path d="M106.875 67.5H101.25V73.125H106.875V67.5Z" fill="black"/>
<path d="M106.875 56.25H101.25V61.875H106.875V56.25Z" fill="#35315A"/>
<path d="M106.875 33.75H101.25V39.375H106.875V33.75Z" fill="#35315A"/>
<path d="M112.5 45H106.875V50.625H112.5V45Z" fill="#35315A"/>
<path d="M112.5 22.5H106.875V28.125H112.5V22.5Z" fill="black"/>
<path d="M112.5 67.5H106.875V73.125H112.5V67.5Z" fill="#35315A"/>
<path d="M112.5 56.25H106.875V61.875H112.5V56.25Z" fill="black"/>
<path d="M112.5 33.75H106.875V39.375H112.5V33.75Z" fill="#35315A"/>
<path d="M118.125 45H112.5V50.625H118.125V45Z" fill="#35315A"/>
<path d="M118.125 67.5H112.5V73.125H118.125V67.5Z" fill="black"/>
<path d="M118.125 56.25H112.5V61.875H118.125V56.25Z" fill="#35315A"/>
<path d="M118.125 33.75H112.5V39.375H118.125V33.75Z" fill="#35315A"/>
<path d="M123.75 45H118.125V50.625H123.75V45Z" fill="#35315A"/>
<path d="M123.75 67.5H118.125V73.125H123.75V67.5Z" fill="#35315A"/>
<path d="M123.75 56.25H118.125V61.875H123.75V56.25Z" fill="#35315A"/>
<path d="M123.75 33.75H118.125V39.375H123.75V33.75Z" fill="#35315A"/>
<path d="M129.375 45H123.75V50.625H129.375V45Z" fill="#35315A"/>
<path d="M129.375 67.5H123.75V73.125H129.375V67.5Z" fill="#35315A"/>
<path d="M129.375 56.25H123.75V61.875H129.375V56.25Z" fill="#35315A"/>
<path d="M129.375 33.75H123.75V39.375H129.375V33.75Z" fill="black"/>
<path d="M135 45H129.375V50.625H135V45Z" fill="black"/>
<path d="M135 67.5H129.375V73.125H135V67.5Z" fill="black"/>
<path d="M135 56.25H129.375V61.875H135V56.25Z" fill="black"/>
<path d="M50.625 45H45V50.625H50.625V45Z" fill="black"/>
<path d="M50.625 67.5H45V73.125H50.625V67.5Z" fill="black"/>
<path d="M50.625 56.25H45V61.875H50.625V56.25Z" fill="black"/>
<path d="M56.25 45H50.625V50.625H56.25V45Z" fill="#35315A"/>
<path d="M56.25 67.5H50.625V73.125H56.25V67.5Z" fill="#35315A"/>
<path d="M56.25 56.25H50.625V61.875H56.25V56.25Z" fill="#35315A"/>
<path d="M56.25 33.75H50.625V39.375H56.25V33.75Z" fill="black"/>
<path d="M61.875 45H56.25V50.625H61.875V45Z" fill="#35315A"/>
<path d="M61.875 67.5H56.25V73.125H61.875V67.5Z" fill="#35315A"/>
<path d="M61.875 56.25H56.25V61.875H61.875V56.25Z" fill="#35315A"/>
<path d="M61.875 33.75H56.25V39.375H61.875V33.75Z" fill="#35315A"/>
<path d="M67.5 45H61.875V50.625H67.5V45Z" fill="#35315A"/>
<path d="M67.5 67.5H61.875V73.125H67.5V67.5Z" fill="black"/>
<path d="M67.5 56.25H61.875V61.875H67.5V56.25Z" fill="#35315A"/>
<path d="M67.5 33.75H61.875V39.375H67.5V33.75Z" fill="#35315A"/>
<path d="M73.125 45H67.5V50.625H73.125V45Z" fill="#35315A"/>
<path d="M73.125 22.5H67.5V28.125H73.125V22.5Z" fill="black"/>
<path d="M73.125 67.5H67.5V73.125H73.125V67.5Z" fill="#35315A"/>
<path d="M73.125 56.25H67.5V61.875H73.125V56.25Z" fill="black"/>
<path d="M73.125 33.75H67.5V39.375H73.125V33.75Z" fill="#35315A"/>
<path d="M78.75 45H73.125V50.625H78.75V45Z" fill="black"/>
<path d="M78.75 22.5H73.125V28.125H78.75V22.5Z" fill="black"/>
<path d="M78.75 67.5H73.125V73.125H78.75V67.5Z" fill="black"/>
<path d="M78.75 56.25H73.125V61.875H78.75V56.25Z" fill="#35315A"/>
<path d="M78.75 33.75H73.125V39.375H78.75V33.75Z" fill="#35315A"/>
<path d="M84.375 45H78.75V50.625H84.375V45Z" fill="#35315A"/>
<path d="M84.375 22.5H78.75V28.125H84.375V22.5Z" fill="black"/>
<path d="M84.375 67.5H78.75V73.125H84.375V67.5Z" fill="#35315A"/>
<path d="M84.375 56.25H78.75V61.875H84.375V56.25Z" fill="black"/>
<path d="M84.375 33.75H78.75V39.375H84.375V33.75Z" fill="black"/>
<path d="M90 45H84.375V50.625H90V45Z" fill="#35315A"/>
<path d="M90 22.5H84.375V28.125H90V22.5Z" fill="black"/>
<path d="M90 67.5H84.375V73.125H90V67.5Z" fill="black"/>
<path d="M90 56.25H84.375V61.875H90V56.25Z" fill="black"/>
<path d="M90 33.75H84.375V39.375H90V33.75Z" fill="#35315A"/>
<path d="M101.25 50.625H95.625V56.25H101.25V50.625Z" fill="#35315A"/>
<path d="M101.25 28.125H95.625V33.75H101.25V28.125Z" fill="black"/>
<path d="M101.25 73.125H95.625V78.75H101.25V73.125Z" fill="black"/>
<path d="M101.25 39.375H95.625V45H101.25V39.375Z" fill="#35315A"/>
<path d="M106.875 50.625H101.25V56.25H106.875V50.625Z" fill="#35315A"/>
<path d="M106.875 28.125H101.25V33.75H106.875V28.125Z" fill="#35315A"/>
<path d="M106.875 73.125H101.25V78.75H106.875V73.125Z" fill="black"/>
<path d="M106.875 61.875H101.25V67.5H106.875V61.875Z" fill="black"/>
<path d="M106.875 39.375H101.25V45H106.875V39.375Z" fill="black"/>
<path d="M112.5 50.625H106.875V56.25H112.5V50.625Z" fill="black"/>
<path d="M112.5 28.125H106.875V33.75H112.5V28.125Z" fill="#35315A"/>
<path d="M112.5 73.125H106.875V78.75H112.5V73.125Z" fill="black"/>
<path d="M112.5 61.875H106.875V67.5H112.5V61.875Z" fill="#35315A"/>
<path d="M112.5 39.375H106.875V45H112.5V39.375Z" fill="#35315A"/>
<path d="M118.125 50.625H112.5V56.25H118.125V50.625Z" fill="#35315A"/>
<path d="M118.125 28.125H112.5V33.75H118.125V28.125Z" fill="black"/>
<path d="M118.125 73.125H112.5V78.75H118.125V73.125Z" fill="black"/>
<path d="M118.125 61.875H112.5V67.5H118.125V61.875Z" fill="black"/>
<path d="M118.125 39.375H112.5V45H118.125V39.375Z" fill="#35315A"/>
<path d="M123.75 50.625H118.125V56.25H123.75V50.625Z" fill="#35315A"/>
<path d="M123.75 28.125H118.125V33.75H123.75V28.125Z" fill="black"/>
<path d="M123.75 73.125H118.125V78.75H123.75V73.125Z" fill="black"/>
<path d="M123.75 61.875H118.125V67.5H123.75V61.875Z" fill="#35315A"/>
<path d="M123.75 39.375H118.125V45H123.75V39.375Z" fill="#35315A"/>
<path d="M129.375 50.625H123.75V56.25H129.375V50.625Z" fill="#35315A"/>
<path d="M129.375 73.125H123.75V78.75H129.375V73.125Z" fill="black"/>
<path d="M129.375 61.875H123.75V67.5H129.375V61.875Z" fill="#35315A"/>
<path d="M129.375 39.375H123.75V45H129.375V39.375Z" fill="black"/>
<path d="M135 50.625H129.375V56.25H135V50.625Z" fill="black"/>
<path d="M135 73.125H129.375V78.75H135V73.125Z" fill="black"/>
<path d="M135 61.875H129.375V67.5H135V61.875Z" fill="black"/>
<path d="M50.625 50.625H45V56.25H50.625V50.625Z" fill="black"/>
<path d="M50.625 73.125H45V78.75H50.625V73.125Z" fill="black"/>
<path d="M50.625 61.875H45V67.5H50.625V61.875Z" fill="black"/>
<path d="M56.25 50.625H50.625V56.25H56.25V50.625Z" fill="#35315A"/>
<path d="M56.25 73.125H50.625V78.75H56.25V73.125Z" fill="black"/>
<path d="M56.25 61.875H50.625V67.5H56.25V61.875Z" fill="#35315A"/>
<path d="M56.25 39.375H50.625V45H56.25V39.375Z" fill="black"/>
<path d="M61.875 50.625H56.25V56.25H61.875V50.625Z" fill="#35315A"/>
<path d="M61.875 28.125H56.25V33.75H61.875V28.125Z" fill="black"/>
<path d="M61.875 73.125H56.25V78.75H61.875V73.125Z" fill="black"/>
<path d="M61.875 61.875H56.25V67.5H61.875V61.875Z" fill="#35315A"/>
<path d="M61.875 39.375H56.25V45H61.875V39.375Z" fill="#35315A"/>
<path d="M67.5 50.625H61.875V56.25H67.5V50.625Z" fill="#35315A"/>
<path d="M67.5 28.125H61.875V33.75H67.5V28.125Z" fill="black"/>
<path d="M67.5 73.125H61.875V78.75H67.5V73.125Z" fill="black"/>
<path d="M67.5 61.875H61.875V67.5H67.5V61.875Z" fill="black"/>
<path d="M67.5 39.375H61.875V45H67.5V39.375Z" fill="#35315A"/>
<path d="M73.125 50.625H67.5V56.25H73.125V50.625Z" fill="black"/>
<path d="M73.125 28.125H67.5V33.75H73.125V28.125Z" fill="#35315A"/>
<path d="M73.125 73.125H67.5V78.75H73.125V73.125Z" fill="black"/>
<path d="M73.125 61.875H67.5V67.5H73.125V61.875Z" fill="#35315A"/>
<path d="M73.125 39.375H67.5V45H73.125V39.375Z" fill="#35315A"/>
<path d="M78.75 50.625H73.125V56.25H78.75V50.625Z" fill="#35315A"/>
<path d="M78.75 28.125H73.125V33.75H78.75V28.125Z" fill="#35315A"/>
<path d="M78.75 73.125H73.125V78.75H78.75V73.125Z" fill="black"/>
<path d="M78.75 61.875H73.125V67.5H78.75V61.875Z" fill="black"/>
<path d="M78.75 39.375H73.125V45H78.75V39.375Z" fill="black"/>
<path d="M84.375 50.625H78.75V56.25H84.375V50.625Z" fill="#35315A"/>
<path d="M84.375 28.125H78.75V33.75H84.375V28.125Z" fill="black"/>
<path d="M84.375 73.125H78.75V78.75H84.375V73.125Z" fill="black"/>
<path d="M84.375 39.375H78.75V45H84.375V39.375Z" fill="#35315A"/>
<path d="M90 50.625H84.375V56.25H90V50.625Z" fill="#35315A"/>
<path d="M90 28.125H84.375V33.75H90V28.125Z" fill="#35315A"/>
<path d="M90 73.125H84.375V78.75H90V73.125Z" fill="black"/>
<path d="M90 16.875H84.375V22.5H90V16.875Z" fill="black"/>
<path d="M90 39.375H84.375V45H90V39.375Z" fill="#35315A"/>
<path d="M95.625 45H90V50.625H95.625V45Z" fill="#35315A"/>
<path d="M95.625 22.5H90V28.125H95.625V22.5Z" fill="black"/>
<path d="M95.625 67.5H90V73.125H95.625V67.5Z" fill="#35315A"/>
<path d="M95.625 56.25H90V61.875H95.625V56.25Z" fill="black"/>
<path d="M95.625 33.75H90V39.375H95.625V33.75Z" fill="#35315A"/>
<path d="M95.625 50.625H90V56.25H95.625V50.625Z" fill="#35315A"/>
<path d="M95.625 28.125H90V33.75H95.625V28.125Z" fill="#35315A"/>
<path d="M95.625 73.125H90V78.75H95.625V73.125Z" fill="black"/>
<path d="M95.625 16.875H90V22.5H95.625V16.875Z" fill="black"/>
<path d="M95.625 39.375H90V45H95.625V39.375Z" fill="#35315A"/>
</svg>
