<svg width="400" height="150" viewBox="0 0 400 150" fill="none" xmlns="http://www.w3.org/2000/svg">
<rect width="400" height="150" fill="white"/>
<path d="M19.1187 42H22.0467V29.82L30.0627 42H32.9907V24.72H30.0627V36.9L22.0467 24.72H19.1187V42ZM39.9693 42.36C41.0013 42.36 41.8773 42.192 42.5973 41.856C43.3253 41.512 43.9653 40.98 44.5173 40.26V42H47.0493V34.044C47.0493 33.484 47.0253 32.968 46.9773 32.496C46.9293 32.016 46.7893 31.548 46.5573 31.092C46.1333 30.236 45.4813 29.62 44.6013 29.244C43.7293 28.868 42.7173 28.68 41.5653 28.68C40.0453 28.68 38.8333 29.012 37.9293 29.676C37.0253 30.34 36.4133 31.22 36.0933 32.316L38.7333 33.144C38.9493 32.48 39.3293 32.012 39.8733 31.74C40.4173 31.468 40.9813 31.332 41.5653 31.332C42.4453 31.332 43.0933 31.512 43.5093 31.872C43.9253 32.224 44.1613 32.772 44.2173 33.516C43.0813 33.684 42.0253 33.848 41.0493 34.008C40.0813 34.16 39.2573 34.348 38.5773 34.572C37.5533 34.924 36.8053 35.424 36.3333 36.072C35.8613 36.712 35.6253 37.504 35.6253 38.448C35.6253 39.16 35.7893 39.812 36.1173 40.404C36.4533 40.996 36.9453 41.472 37.5933 41.832C38.2413 42.184 39.0333 42.36 39.9693 42.36ZM40.5453 40.056C39.8653 40.056 39.3453 39.9 38.9853 39.588C38.6333 39.276 38.4573 38.884 38.4573 38.412C38.4573 37.988 38.5933 37.644 38.8653 37.38C39.1453 37.116 39.5333 36.892 40.0293 36.708C40.4853 36.556 41.0333 36.424 41.6733 36.312C42.3133 36.192 43.1493 36.052 44.1813 35.892C44.1733 36.196 44.1533 36.536 44.1213 36.912C44.0893 37.28 44.0133 37.612 43.8933 37.908C43.7973 38.204 43.6093 38.52 43.3293 38.856C43.0573 39.192 42.6893 39.476 42.2253 39.708C41.7613 39.94 41.2013 40.056 40.5453 40.056ZM50.1494 42H53.0654V34.02C53.0654 33.212 53.2854 32.556 53.7254 32.052C54.1734 31.548 54.7654 31.296 55.5014 31.296C56.2614 31.296 56.8614 31.548 57.3014 32.052C57.7414 32.556 57.9614 33.26 57.9614 34.164V42H60.8414V34.02C60.8414 33.164 61.0734 32.496 61.5374 32.016C62.0094 31.536 62.5934 31.296 63.2894 31.296C64.0334 31.296 64.6254 31.548 65.0654 32.052C65.5134 32.548 65.7374 33.24 65.7374 34.128V42H68.6294V33.396C68.6294 31.988 68.2454 30.856 67.4774 30C66.7174 29.144 65.6214 28.716 64.1894 28.716C63.3494 28.716 62.5814 28.9 61.8854 29.268C61.1894 29.636 60.6414 30.14 60.2414 30.78C59.8974 30.148 59.4094 29.648 58.7774 29.28C58.1454 28.904 57.3734 28.716 56.4614 28.716C55.6854 28.716 54.9694 28.872 54.3134 29.184C53.6654 29.488 53.1294 29.908 52.7054 30.444V29.04H50.1494V42ZM77.4404 42.36C78.6884 42.36 79.8284 42.04 80.8604 41.4C81.9004 40.752 82.6684 39.84 83.1644 38.664L80.3084 37.8C79.7324 39.032 78.7204 39.648 77.2724 39.648C76.2884 39.648 75.5124 39.364 74.9444 38.796C74.3764 38.22 74.0364 37.396 73.9244 36.324H83.3084C83.4204 34.764 83.2484 33.412 82.7924 32.268C82.3364 31.124 81.6364 30.24 80.6924 29.616C79.7564 28.992 78.6164 28.68 77.2724 28.68C76.0004 28.68 74.8804 28.968 73.9124 29.544C72.9444 30.112 72.1884 30.92 71.6444 31.968C71.1004 33.016 70.8284 34.248 70.8284 35.664C70.8284 36.976 71.1044 38.136 71.6564 39.144C72.2164 40.152 72.9924 40.94 73.9844 41.508C74.9764 42.076 76.1284 42.36 77.4404 42.36ZM77.3924 31.212C78.2884 31.212 78.9764 31.448 79.4564 31.92C79.9444 32.384 80.2524 33.124 80.3804 34.14H73.9964C74.3404 32.188 75.4724 31.212 77.3924 31.212ZM96.5146 42.36C97.8106 42.36 98.9426 42.072 99.9106 41.496C100.879 40.912 101.631 40.108 102.167 39.084C102.711 38.052 102.983 36.864 102.983 35.52C102.983 34.184 102.715 33.004 102.179 31.98C101.643 30.948 100.891 30.14 99.9226 29.556C98.9546 28.972 97.8186 28.68 96.5146 28.68C95.2426 28.68 94.1226 28.968 93.1546 29.544C92.1866 30.12 91.4306 30.92 90.8866 31.944C90.3426 32.968 90.0706 34.16 90.0706 35.52C90.0706 36.856 90.3346 38.04 90.8626 39.072C91.3986 40.096 92.1506 40.9 93.1186 41.484C94.0866 42.068 95.2186 42.36 96.5146 42.36ZM96.5146 39.648C95.4026 39.648 94.5586 39.276 93.9826 38.532C93.4146 37.78 93.1306 36.776 93.1306 35.52C93.1306 34.296 93.4026 33.304 93.9466 32.544C94.4986 31.776 95.3546 31.392 96.5146 31.392C97.6506 31.392 98.5026 31.768 99.0706 32.52C99.6386 33.264 99.9226 34.264 99.9226 35.52C99.9226 36.736 99.6386 37.728 99.0706 38.496C98.5106 39.264 97.6586 39.648 96.5146 39.648ZM106.755 42H109.647V31.308H112.779V29.04H109.647V28.212C109.647 27.764 109.779 27.404 110.043 27.132C110.315 26.852 110.727 26.712 111.279 26.712H112.779V24.36H111.159C110.847 24.36 110.483 24.372 110.067 24.396C109.651 24.412 109.227 24.5 108.795 24.66C108.371 24.812 107.975 25.092 107.607 25.5C107.167 25.98 106.915 26.532 106.851 27.156C106.787 27.78 106.755 28.34 106.755 28.836V29.04H104.667V31.308H106.755V42ZM127.098 42V39.576C126.29 39.696 125.57 39.728 124.938 39.672C124.306 39.616 123.846 39.348 123.558 38.868C123.406 38.62 123.322 38.3 123.306 37.908C123.298 37.508 123.294 37.052 123.294 36.54V31.308H127.098V29.04H123.294V25.44H120.414V29.04H118.062V31.308H120.414V36.708C120.414 37.452 120.422 38.116 120.438 38.7C120.454 39.276 120.61 39.844 120.906 40.404C121.242 41.02 121.734 41.472 122.382 41.76C123.03 42.04 123.762 42.188 124.578 42.204C125.402 42.228 126.242 42.16 127.098 42ZM129.86 42H132.788V35.34C132.788 34.292 132.936 33.484 133.232 32.916C133.536 32.34 133.92 31.944 134.384 31.728C134.856 31.504 135.336 31.392 135.824 31.392C136.512 31.392 137.06 31.544 137.468 31.848C137.876 32.144 138.176 32.524 138.368 32.988C138.568 33.444 138.696 33.92 138.752 34.416C138.816 34.912 138.848 35.36 138.848 35.76V42H141.776V34.764C141.776 34.46 141.748 34.056 141.692 33.552C141.644 33.048 141.532 32.516 141.356 31.956C141.18 31.396 140.908 30.868 140.54 30.372C140.172 29.868 139.672 29.46 139.04 29.148C138.416 28.828 137.628 28.668 136.676 28.668C135.74 28.668 134.916 28.832 134.204 29.16C133.5 29.48 132.912 29.92 132.44 30.48V24.72H129.86V42ZM150.8 42.36C152.048 42.36 153.188 42.04 154.22 41.4C155.26 40.752 156.028 39.84 156.524 38.664L153.668 37.8C153.092 39.032 152.08 39.648 150.632 39.648C149.648 39.648 148.872 39.364 148.304 38.796C147.736 38.22 147.396 37.396 147.284 36.324H156.668C156.78 34.764 156.608 33.412 156.152 32.268C155.696 31.124 154.996 30.24 154.052 29.616C153.116 28.992 151.976 28.68 150.632 28.68C149.36 28.68 148.24 28.968 147.272 29.544C146.304 30.112 145.548 30.92 145.004 31.968C144.46 33.016 144.188 34.248 144.188 35.664C144.188 36.976 144.464 38.136 145.016 39.144C145.576 40.152 146.352 40.94 147.344 41.508C148.336 42.076 149.488 42.36 150.8 42.36ZM150.752 31.212C151.648 31.212 152.336 31.448 152.816 31.92C153.304 32.384 153.612 33.124 153.74 34.14H147.356C147.7 32.188 148.832 31.212 150.752 31.212ZM162.95 42H165.926L167.102 38.256H173.918L175.106 42H178.082L172.634 24.72H168.398L162.95 42ZM167.954 35.556L170.486 27.516L173.054 35.556H167.954ZM180.252 42H183.156V35.412C183.156 34.66 183.292 33.992 183.564 33.408C183.844 32.824 184.28 32.372 184.872 32.052C185.272 31.82 185.72 31.684 186.216 31.644C186.712 31.596 187.156 31.628 187.548 31.74V29.04C186.964 28.952 186.364 28.964 185.748 29.076C185.132 29.18 184.584 29.396 184.104 29.724C183.832 29.892 183.588 30.096 183.372 30.336C183.156 30.568 182.968 30.828 182.808 31.116V29.04H180.252V42ZM197.433 42V39.576C196.625 39.696 195.905 39.728 195.273 39.672C194.641 39.616 194.181 39.348 193.893 38.868C193.741 38.62 193.657 38.3 193.641 37.908C193.633 37.508 193.629 37.052 193.629 36.54V31.308H197.433V29.04H193.629V25.44H190.749V29.04H188.397V31.308H190.749V36.708C190.749 37.452 190.757 38.116 190.773 38.7C190.789 39.276 190.945 39.844 191.241 40.404C191.577 41.02 192.069 41.472 192.717 41.76C193.365 42.04 194.097 42.188 194.913 42.204C195.737 42.228 196.577 42.16 197.433 42ZM200.46 27.072H203.352V24.42H200.46V27.072ZM200.46 42H203.352V29.04H200.46V42ZM212.575 42.36C214.023 42.36 215.247 42.008 216.247 41.304C217.247 40.592 217.947 39.576 218.347 38.256L215.395 37.596C215.171 38.26 214.835 38.768 214.387 39.12C213.947 39.472 213.343 39.648 212.575 39.648C211.487 39.648 210.667 39.268 210.115 38.508C209.571 37.748 209.295 36.752 209.287 35.52C209.295 34.328 209.559 33.344 210.079 32.568C210.607 31.784 211.439 31.392 212.575 31.392C213.239 31.392 213.831 31.588 214.351 31.98C214.871 32.364 215.243 32.904 215.467 33.6L218.347 32.82C218.043 31.54 217.379 30.532 216.355 29.796C215.331 29.052 214.083 28.68 212.611 28.68C211.299 28.68 210.167 28.976 209.215 29.568C208.263 30.152 207.527 30.96 207.007 31.992C206.495 33.016 206.235 34.192 206.227 35.52C206.235 36.824 206.487 37.992 206.983 39.024C207.487 40.056 208.211 40.872 209.155 41.472C210.099 42.064 211.239 42.36 212.575 42.36ZM220.992 42H223.884V24.36H220.992V42ZM233.37 42.36C234.618 42.36 235.758 42.04 236.79 41.4C237.83 40.752 238.598 39.84 239.094 38.664L236.238 37.8C235.662 39.032 234.65 39.648 233.202 39.648C232.218 39.648 231.442 39.364 230.874 38.796C230.306 38.22 229.966 37.396 229.854 36.324H239.238C239.35 34.764 239.178 33.412 238.722 32.268C238.266 31.124 237.566 30.24 236.622 29.616C235.686 28.992 234.546 28.68 233.202 28.68C231.93 28.68 230.81 28.968 229.842 29.544C228.874 30.112 228.118 30.92 227.574 31.968C227.03 33.016 226.758 34.248 226.758 35.664C226.758 36.976 227.034 38.136 227.586 39.144C228.146 40.152 228.922 40.94 229.914 41.508C230.906 42.076 232.058 42.36 233.37 42.36ZM233.322 31.212C234.218 31.212 234.906 31.448 235.386 31.92C235.874 32.384 236.182 33.124 236.31 34.14H229.926C230.27 32.188 231.402 31.212 233.322 31.212Z" fill="black"/>
<ellipse cx="365.123" cy="32" rx="15.2589" ry="14" fill="#12100E"/>
<path d="M357.187 36L354.7 38.9062V39.2344H360.831V38.9062L358.362 36V28.5L363.658 39.2344H364.407L368.937 28.5V37.3125L367.081 38.9062V39.2344H375.204V38.9062L373.399 37.3125V26.2188L375.204 24.6719V24.2969H369.602L365.514 33.5L360.95 24.2969H354.99V24.6719L357.187 27.0625V36Z" fill="white"/>
</svg>
